<svg width="141" height="37" viewBox="0 0 141 37" fill="none" xmlns="http://www.w3.org/2000/svg">
<path d="M8.46899 9.34649C10.9535 9.57973 13.4481 9.82311 15.9326 10.0563C16.7438 9.35663 19.5021 7.15605 23.599 7.05464C24.6536 7.03436 27.6147 7.00394 30.3527 8.99155C34.338 11.8817 34.6321 16.6885 34.6524 17.1043C34.9262 23.1584 29.4907 27.6001 29.9775 27.9956C30.3121 28.2694 32.8879 26.15 34.6422 23.2497C35.7678 21.3837 36.285 19.6395 36.5487 18.4125C36.5689 17.155 36.5487 10.7358 31.4884 5.57407C27.3916 1.38587 22.4429 0.55432 20.9015 0.351501C19.4818 0.513756 16.754 1.01066 13.9551 2.88673C10.6188 5.11773 9.05716 8.04845 8.46899 9.34649Z" fill="#5BC4BF"/>
<path d="M12.0888 17.0838C11.9468 17.0331 12.4031 14.2849 13.7417 12.3379C14.624 11.0702 15.9321 9.95474 15.9321 9.95474C15.9524 9.9446 15.9625 9.92432 15.9727 9.92432C17.2504 10.2285 18.2848 10.5936 19.0453 10.8877C21.6819 11.9424 22.625 12.926 23.0103 13.3722C23.4565 13.8894 23.8115 14.4674 23.7202 14.5587C23.5377 14.7311 22.0166 12.5305 19.5016 12.0539C17.9298 11.7497 16.6115 12.2466 16.2262 12.4088C14.7051 13.0072 13.8634 14.0415 13.4679 14.5283C12.3829 15.877 12.18 17.1142 12.0888 17.0838Z" fill="#87236A"/>
<path d="M12.1399 17.0328C12.6368 16.9314 12.799 22.2655 16.1353 23.8577C18.1939 24.8413 21.0739 24.2329 22.8181 22.5089C24.9882 20.3591 25.2113 16.4142 22.9398 13.3416C24.2276 14.3861 26.1848 16.252 27.7262 19.1219C29.7138 22.8132 29.9774 26.2509 29.9977 28.0256C29.7949 28.1473 29.5008 28.3095 29.1459 28.4819C24.684 30.6521 20.0699 29.1715 19.7657 29.0701C18.7111 28.7152 15.0401 27.3157 13.083 23.594C11.43 20.4605 11.7444 17.114 12.1399 17.0328Z" fill="#87236A"/>
<path d="M1.74561 11.5365C2.50616 11.0701 3.49995 10.563 4.69656 10.1472C6.16696 9.6402 7.48526 9.42724 8.49933 9.33597C9.06721 8.0785 10.4768 5.42158 13.448 3.24129C16.4801 1.02043 19.5223 0.503242 20.9014 0.351129C19.5629 0.138169 14.1072 -0.591976 8.72243 2.82551C4.02727 5.80694 2.25264 10.1371 1.74561 11.5365Z" fill="#1296B0"/>
<path d="M29.9875 28.0256C31.0319 27.3462 32.5733 26.1698 33.9423 24.3039C35.6561 21.9614 36.295 19.6594 36.5586 18.3411C36.5688 19.923 36.3863 23.1174 34.5609 26.5755C32.9485 29.6279 30.7886 31.4837 29.5413 32.4065C29.6832 30.9564 29.8353 29.4961 29.9875 28.0256Z" fill="#1296B0"/>
<path d="M8.49896 9.34609C8.7829 9.31567 9.1074 9.27511 9.47247 9.25483C9.64486 9.24468 10.0201 9.21426 10.5068 9.21426C10.7908 9.21426 11.3181 9.20412 11.9772 9.24468C12.6567 9.28525 13.1536 9.36637 13.5997 9.43736C14.2183 9.53877 15.0397 9.69088 15.9727 9.93427C15.6482 10.2081 11.2268 14.1326 12.0685 20.0143C12.6161 23.878 15.1817 26.8797 17.9907 28.2994C23.0915 30.8752 29.1049 28.4617 29.1049 28.4921C29.1556 28.6747 25.1095 30.6521 20.1202 29.9017C18.731 29.6888 12.2105 28.5124 8.87416 22.3366C5.53786 16.1304 8.17445 10.056 8.49896 9.34609Z" fill="#BF2070"/>
<path d="M1.73514 11.5466L1.74528 11.5263C2.5464 11.0294 3.6416 10.4615 5.00046 10.0255C6.34917 9.5894 7.56606 9.40686 8.49901 9.33588C8.17451 10.0863 5.54806 16.4852 9.12773 22.661C9.27985 22.9247 12.1801 27.7416 17.9704 29.3844C22.8583 30.7636 27.2087 29.2729 27.2087 29.2932C27.2087 29.4149 22.8786 31.149 17.5445 30.3681C15.922 30.1349 9.78688 29.1411 5.46693 23.6041C1.56275 18.6047 1.65402 13.1387 1.73514 11.577C1.725 11.5669 1.73514 11.5669 1.73514 11.5466Z" fill="#F04E30"/>
<path d="M1.74541 11.5366C-1.19541 18.9191 1.03555 27.3665 7.16055 32.2544C13.5796 37.3756 22.8584 37.477 29.531 32.4167C29.6831 30.9564 29.8352 29.4961 29.9873 28.0257C28.4257 28.8775 25.6775 30.1248 22.0573 30.4392C20.4348 30.5812 15.5875 30.926 10.578 27.9446C9.19884 27.1231 5.14255 24.4561 3.013 19.1625C1.72512 15.9986 1.65414 13.1591 1.74541 11.5366Z" fill="#F7941D"/>
<path d="M18.4373 24.4967C22.0105 24.4967 24.9071 21.6273 24.9071 18.0876C24.9071 14.548 22.0105 11.6786 18.4373 11.6786C14.8642 11.6786 11.9675 14.548 11.9675 18.0876C11.9675 21.6273 14.8642 24.4967 18.4373 24.4967Z" fill="#F1F2F2"/>
<path d="M31.2348 9.55897C34.1858 12.0739 34.8246 15.2987 34.997 16.2925C35.5953 19.6492 34.5508 22.2554 34.2466 22.9652C32.979 25.896 30.8495 27.4678 29.9774 28.0357C29.9571 26.4537 29.6934 20.6126 25.1808 15.5725C21.7634 11.7494 17.697 10.3905 15.9629 9.92404C16.7234 9.28516 17.9302 8.43333 19.5831 7.79445C20.3437 7.50036 22.0372 6.86149 24.258 6.92233C28.1622 7.02374 30.8089 9.1939 31.2348 9.55897Z" fill="#104573"/>
<path d="M47.0944 21.8903V26.9506H44.7214V13.3111H49.9439C51.465 13.3111 52.6819 13.7066 53.5743 14.4976C54.4667 15.2886 54.923 16.3432 54.923 17.6514C54.923 18.99 54.487 20.0345 53.6047 20.7748C52.7225 21.5151 51.4954 21.8903 49.9236 21.8903H47.0944ZM47.0944 19.9838H49.9439C50.7856 19.9838 51.4346 19.781 51.8706 19.3855C52.3168 18.99 52.5399 18.412 52.5399 17.6615C52.5399 16.9213 52.3168 16.3331 51.8605 15.897C51.4143 15.461 50.7957 15.2277 50.0048 15.2176H47.0944V19.9838V19.9838Z" fill="black"/>
<path d="M61.1999 27.1434C59.76 27.1434 58.5836 26.6871 57.6913 25.7845C56.7989 24.8719 56.3425 23.6651 56.3425 22.1541V21.8702C56.3425 20.8561 56.5352 19.9535 56.9307 19.1625C57.316 18.3614 57.8738 17.7428 58.5735 17.3068C59.2833 16.8606 60.0642 16.6375 60.9363 16.6375C62.3154 16.6375 63.3802 17.0735 64.1306 17.9558C64.881 18.838 65.2562 20.0854 65.2562 21.6978V22.6206H58.6343C58.7053 23.4623 58.9791 24.1214 59.476 24.6082C59.9628 25.095 60.5814 25.3383 61.3216 25.3383C62.3661 25.3383 63.2179 24.9124 63.867 24.0707L65.094 25.2369C64.6884 25.8454 64.1509 26.3119 63.4715 26.6465C62.8022 26.971 62.0416 27.1434 61.1999 27.1434ZM60.9363 18.4527C60.3076 18.4527 59.8107 18.6758 59.4253 19.1118C59.04 19.5479 58.7966 20.1563 58.685 20.9372H63.0253V20.7648C62.9746 20.0042 62.7718 19.4262 62.4168 19.0408C62.0518 18.6555 61.565 18.4527 60.9363 18.4527Z" fill="black"/>
<path d="M66.7069 21.789C66.7069 20.7952 66.8996 19.9028 67.2951 19.1017C67.6906 18.3006 68.2382 17.6921 68.9582 17.2662C69.668 16.8403 70.4894 16.6273 71.4122 16.6273C72.7812 16.6273 73.8866 17.0634 74.7384 17.9456C75.5902 18.8279 76.0465 19.9941 76.1175 21.4442L76.1277 21.9817C76.1277 22.9857 75.935 23.8781 75.5496 24.6589C75.1643 25.4499 74.6167 26.0584 73.8967 26.4843C73.1767 26.9102 72.3553 27.1333 71.4224 27.1333C69.9925 27.1333 68.8466 26.6567 67.9847 25.7034C67.1227 24.7502 66.6968 23.4826 66.6968 21.9006V21.789H66.7069ZM68.9784 21.9919C68.9784 23.0364 69.1914 23.8476 69.6274 24.446C70.0635 25.0443 70.6618 25.3282 71.4224 25.3282C72.1829 25.3282 72.7914 25.024 73.2173 24.4257C73.6432 23.8274 73.8561 22.9451 73.8561 21.789C73.8561 20.7648 73.633 19.9535 73.197 19.3552C72.7609 18.7569 72.1626 18.4527 71.4021 18.4527C70.6618 18.4527 70.0736 18.7468 69.6274 19.3349C69.1813 19.9231 68.9784 20.8155 68.9784 21.9919Z" fill="black"/>
<path d="M87.0182 21.9919C87.0182 23.5637 86.6632 24.811 85.9534 25.744C85.2435 26.6769 84.2903 27.1434 83.0836 27.1434C81.9681 27.1434 81.0858 26.7784 80.4165 26.0482V30.855H78.145V16.82H80.2442L80.3354 17.8544C81.0047 17.0431 81.9072 16.6375 83.0633 16.6375C84.3004 16.6375 85.274 17.0938 85.9737 18.0166C86.6734 18.9394 87.0283 20.2172 87.0283 21.8499V21.9919H87.0182ZM84.7568 21.789C84.7568 20.7749 84.554 19.9738 84.1483 19.3856C83.7427 18.7975 83.1647 18.4932 82.4244 18.4932C81.4915 18.4932 80.8222 18.8786 80.4165 19.6493V24.1417C80.8323 24.9327 81.5016 25.3181 82.4447 25.3181C83.1647 25.3181 83.7326 25.024 84.1483 24.446C84.554 23.8679 84.7568 22.9755 84.7568 21.789Z" fill="black"/>
<path d="M91.4704 26.9507H89.1887V12.5608H91.4602V26.9507H91.4704Z" fill="black"/>
<path d="M98.4978 27.1434C97.0578 27.1434 95.8815 26.6871 94.9891 25.7845C94.0967 24.8719 93.6404 23.6651 93.6404 22.1541V21.8702C93.6404 20.8561 93.8331 19.9535 94.2285 19.1625C94.6139 18.3614 95.1716 17.7428 95.8713 17.3068C96.5812 16.8606 97.362 16.6375 98.2341 16.6375C99.6133 16.6375 100.678 17.0735 101.428 17.9558C102.179 18.838 102.554 20.0854 102.554 21.6978V22.6206H95.9322C96.0032 23.4623 96.277 24.1214 96.7739 24.6082C97.2606 25.095 97.8792 25.3383 98.6195 25.3383C99.664 25.3383 100.516 24.9124 101.165 24.0707L102.392 25.2369C101.986 25.8454 101.449 26.3119 100.769 26.6465C100.11 26.971 99.3496 27.1434 98.4978 27.1434ZM98.2341 18.4527C97.6054 18.4527 97.1085 18.6758 96.7232 19.1118C96.3378 19.5479 96.0944 20.1563 95.9829 20.9372H100.323V20.7648C100.272 20.0042 100.07 19.4262 99.7147 19.0408C99.3597 18.6555 98.8629 18.4527 98.2341 18.4527Z" fill="black"/>
<path d="M111.782 23.4423C111.782 22.844 111.569 22.3775 111.153 22.053C110.728 21.7285 109.967 21.4039 108.872 21.0693C107.777 20.7346 106.894 20.3696 106.245 19.9639C104.998 19.1831 104.379 18.169 104.379 16.9115C104.379 15.8163 104.826 14.9036 105.728 14.1938C106.621 13.4839 107.787 13.129 109.217 13.129C110.17 13.129 111.011 13.3014 111.752 13.6563C112.492 14.0011 113.08 14.5081 113.506 15.147C113.932 15.796 114.145 16.5059 114.145 17.2969H111.782C111.782 16.587 111.559 16.0293 111.113 15.6236C110.667 15.218 110.028 15.0152 109.196 15.0152C108.426 15.0152 107.817 15.1774 107.391 15.5121C106.965 15.8467 106.752 16.3031 106.752 16.9014C106.752 17.3983 106.986 17.8141 107.442 18.1487C107.908 18.4834 108.669 18.8079 109.724 19.1222C110.788 19.4366 111.64 19.8017 112.279 20.1972C112.918 20.6028 113.395 21.0592 113.689 21.5865C113.993 22.1037 114.135 22.7223 114.135 23.422C114.135 24.5578 113.699 25.4603 112.827 26.1296C111.955 26.7989 110.778 27.1336 109.277 27.1336C108.294 27.1336 107.381 26.951 106.56 26.5859C105.728 26.2209 105.089 25.7138 104.633 25.075C104.177 24.4361 103.943 23.6856 103.943 22.8237H106.316C106.316 23.5944 106.57 24.1927 107.087 24.6186C107.594 25.0445 108.334 25.2575 109.288 25.2575C110.109 25.2575 110.728 25.0952 111.143 24.7606C111.569 24.4361 111.782 23.9899 111.782 23.4423Z" fill="black"/>
<path d="M115.676 21.789C115.676 20.7952 115.869 19.9028 116.264 19.1017C116.66 18.3006 117.207 17.6921 117.927 17.2662C118.637 16.8403 119.459 16.6273 120.381 16.6273C121.75 16.6273 122.856 17.0634 123.708 17.9456C124.559 18.8279 125.016 19.9941 125.087 21.4442L125.097 21.9817C125.097 22.9857 124.904 23.8781 124.519 24.6589C124.134 25.4499 123.586 26.0584 122.866 26.4843C122.146 26.9102 121.325 27.1333 120.392 27.1333C118.962 27.1333 117.816 26.6567 116.954 25.7034C116.092 24.7502 115.666 23.4826 115.666 21.9006V21.789H115.676ZM117.958 21.9919C117.958 23.0364 118.171 23.8476 118.607 24.446C119.043 25.0443 119.641 25.3282 120.402 25.3282C121.162 25.3282 121.771 25.024 122.197 24.4257C122.623 23.8274 122.836 22.9451 122.836 21.789C122.836 20.7648 122.612 19.9535 122.176 19.3552C121.74 18.7569 121.142 18.4527 120.381 18.4527C119.641 18.4527 119.053 18.7468 118.607 19.3349C118.161 19.9231 117.958 20.8155 117.958 21.9919Z" fill="black"/>
<path d="M129.539 26.9507H127.267V12.5608H129.539V26.9507Z" fill="black"/>
<path d="M134.67 8.3929H133.118V12.6724H132.256V8.3929H130.715V7.69318H134.66V8.3929H134.67Z" fill="black"/>
<path d="M136.475 7.69318L137.915 11.5062L139.345 7.69318H140.46V12.6724H139.598V11.0295L139.679 8.8391L138.209 12.6724H137.59L136.12 8.8391L136.201 11.0295V12.6724H135.339V7.69318H136.475Z" fill="black"/>
</svg>
