<svg width="22" height="21" viewBox="0 0 22 21" fill="none" xmlns="http://www.w3.org/2000/svg">
<path d="M10.981 12.864C12.8124 12.864 14.297 11.3868 14.297 9.56455C14.297 7.74233 12.8124 6.26514 10.981 6.26514C9.14966 6.26514 7.66504 7.74233 7.66504 9.56455C7.66504 11.3868 9.14966 12.864 10.981 12.864Z" stroke="#F7941D" stroke-miterlimit="10"/>
<path d="M4.9519 19.6628V18.7629C4.9519 15.4635 7.665 12.764 10.981 12.764C14.297 12.764 17.0101 15.4635 17.0101 18.7629V19.6628" stroke="#F7941D" stroke-miterlimit="10"/>
<path d="M18.0151 19.6626H3.94717C2.23892 19.6626 0.932617 18.3629 0.932617 16.6632V5.06523C0.932617 3.36554 2.23892 2.06577 3.94717 2.06577H9.87578L10.9811 0.666016L12.0864 2.06577H18.0151C19.7233 2.06577 21.0296 3.36554 21.0296 5.06523V16.6632C21.0296 18.3629 19.7233 19.6626 18.0151 19.6626Z" stroke="#1296B0" stroke-miterlimit="10" stroke-linecap="round" stroke-linejoin="round"/>
</svg>
