<svg width="22" height="21" viewBox="0 0 22 21" fill="none" xmlns="http://www.w3.org/2000/svg">
<path d="M10.981 12.8708C12.8124 12.8708 14.297 11.3936 14.297 9.57139C14.297 7.74917 12.8124 6.27197 10.981 6.27197C9.14966 6.27197 7.66504 7.74917 7.66504 9.57139C7.66504 11.3936 9.14966 12.8708 10.981 12.8708Z" stroke="#F7941D" stroke-miterlimit="10"/>
<path d="M4.9519 19.6696V18.7697C4.9519 15.4703 7.665 12.7708 10.981 12.7708C14.297 12.7708 17.0101 15.4703 17.0101 18.7697V19.6696" stroke="#F7941D" stroke-miterlimit="10"/>
<path d="M18.0151 19.6695H3.94717C2.23892 19.6695 0.932617 18.3697 0.932617 16.67V5.07207C0.932617 3.37237 2.23892 2.0726 3.94717 2.0726H9.87578L10.9811 0.672852L12.0864 2.0726H18.0151C19.7233 2.0726 21.0296 3.37237 21.0296 5.07207V16.67C21.0296 18.3697 19.7233 19.6695 18.0151 19.6695Z" stroke="#1296B0" stroke-miterlimit="10" stroke-linecap="round" stroke-linejoin="round"/>
</svg>
