<svg width="17" height="17" viewBox="0 0 17 17" fill="none" xmlns="http://www.w3.org/2000/svg">
<path fill-rule="evenodd" clip-rule="evenodd" d="M11.9735 10.8143L16.2456 15.0866C16.3958 15.2368 16.4801 15.4406 16.48 15.653C16.4799 15.8655 16.3955 16.0692 16.2452 16.2194C16.0949 16.3695 15.8912 16.4538 15.6787 16.4538C15.4663 16.4537 15.2626 16.3692 15.1125 16.219L10.8403 11.9467C9.56319 12.9359 7.95721 13.4014 6.34908 13.2485C4.74095 13.0956 3.25146 12.3358 2.18362 11.1237C1.11578 9.91157 0.549801 8.33816 0.60083 6.72354C0.651858 5.10892 1.31606 3.57438 2.45831 2.43211C3.60056 1.28983 5.13505 0.625615 6.74963 0.574585C8.36421 0.523555 9.93758 1.08954 11.1497 2.15741C12.3618 3.22528 13.1216 4.71481 13.2744 6.32298C13.4273 7.93115 12.9626 9.53717 11.9735 10.8143ZM6.95089 11.6886C8.21451 11.6886 9.42638 11.1866 10.3199 10.2931C11.2134 9.39956 11.7154 8.18766 11.7154 6.92401C11.7154 5.66036 11.2134 4.44847 10.3199 3.55493C9.42638 2.66139 8.21451 2.15941 6.95089 2.15941C5.68727 2.15941 4.47541 2.66139 3.58189 3.55493C2.68838 4.44847 2.18641 5.66036 2.18641 6.92401C2.18641 8.18766 2.68838 9.39956 3.58189 10.2931C4.47541 11.1866 5.68727 11.6886 6.95089 11.6886Z" fill="#1296B0"/>
</svg>
